<?xml version="1.0" encoding="UTF-8" standalone="yes"?>
<svg version="1.2" width="784" height="784" baseProfile="tiny-ps" xmlns="http://www.w3.org/2000/svg">
  <title>ZetCronar.org BIMI Logo</title>
  <path d="M0 0 C123.75 0 247.5 0 375 0 C375 18.15 375 36.3 375 55 C361.58187618 72.89083176 361.58187618 72.89083176 354.90234375 81.3203125 C351.64185154 85.44629263 348.41395265 89.59737822 345.1875 93.75 C344.59855957 94.50780762 344.00961914 95.26561523 343.40283203 96.04638672 C342.20123508 97.59269608 340.99973823 99.13908324 339.79833984 100.68554688 C336.86700636 104.45815636 333.93337972 108.22898151 331 112 C330.42564209 112.73855225 329.85128418 113.47710449 329.25952148 114.23803711 C326.29389134 118.05146465 323.32737734 121.86419963 320.359375 125.67578125 C315.04213334 132.50528564 309.72620333 139.33585737 304.4375 146.1875 C303.32181641 147.63189453 303.32181641 147.63189453 302.18359375 149.10546875 C299.72901902 152.35920735 297.36898256 155.68342442 295 159 C332.29 159 369.58 159 408 159 C407.01 158.34 406.02 157.68 405 157 C404.2421875 154.35546875 404.2421875 154.35546875 403.875 151.1875 C403.66015625 147.93359375 403.66015625 147.93359375 404 145 C404.70962891 144.05833984 404.70962891 144.05833984 405.43359375 143.09765625 C407.3125 141.75 407.3125 141.75 409.23828125 140.671875 C409.81964844 140.45015625 410.40101563 140.2284375 411 140 C411.66 140 412.32 140 413 140 C413.33 140.33 413.66 140.66 414 141 C414 138.03 414 135.06 414 132 C415.65391846 131.60828247 417.32345271 131.27942455 419 131 C419.66 131.33 420.32 131.66 421 132 C421 131.34 421 130.68 421 130 C419.68 129.34 418.36 128.68 417 128 C417.66 127.34 418.32 126.68 419 126 C419 125.01 419 124.02 419 123 C420.485 122.505 420.485 122.505 422 122 C421.67 120.68 421.34 119.36 421 118 C422.5 117.0625 422.5 117.0625 425 116 C427.81863912 115.41683328 430.15585027 115.04390626 433 115 C435.59319073 115.25566669 438.05275971 115.6852904 440.59375 116.26171875 C443 117 443 117 445.15625 117.95703125 C447.0625 119 447.0625 119 450 121 C450.33 121.66 450.66 122.32 451 123 C449.824375 123.4021875 449.824375 123.4021875 448.625 123.8125 C447.75875 124.204375 446.8925 124.59625 446 125 C445.34 125.99 444.68 126.98 444 128 C441.94140625 128.87890625 441.94140625 128.87890625 439.5625 129.5625 C438.03172031 130.00887233 436.50944682 130.48608852 435 131 C433.515 131.99 433.515 131.99 432 133 C431.690625 133.928125 431.38125 134.85625 431.0625 135.8125 C430.78733444 137.73118725 430.78733444 137.73118725 431 140 C432.10170174 144.41710323 433.49518392 148.70513865 435 153 C434.855625 152.34773437 434.71125 151.69546875 434.5625 151.0234375 C433.76227073 147.25569135 433.0669259 143.5067247 432.5625 139.6875 C432.706875 138.800625 432.85125 137.91375 433 137 C433.7425 136.030625 434.485 135.06125 435.25 134.0625 C436.1575 133.381875 437.065 132.70125 438 132 C440.125 132.375 440.125 132.375 442 133 C442.5775 132.525625 443.155 132.05125 443.75 131.5625 C444.1625 131.046875 444.575 130.53125 445 130 C445.66 130.33 446.32 130.66 447 131 C447 129.35 447 127.7 447 126 C448.4540625 125.4121875 448.4540625 125.4121875 449.9375 124.8125 C450.948125 124.214375 451.95875 123.61625 453 123 C453.12375 122.21625 453.2475 121.4325 453.375 120.625 C453.58125 119.75875 453.7875 118.8925 454 118 C455.8721321 116.41179315 457.80068108 115.2211689 459.93359375 114.0078125 C462 113 462 113 464.8125 112.125 C465.534375 112.08375 466.25625 112.0425 467 112 C467.99 112.33 468.98 112.66 470 113 C472.39490986 113.06970052 474.79167691 113.08448003 477.1875 113.0625 C478.45980469 113.05347656 479.73210937 113.04445313 481.04296875 113.03515625 C482.01878906 113.02355469 482.99460937 113.01195312 484 113 C484 114.32 484 115.64 484 117 C483.03624562 118.3625493 482.07042969 119.72373206 481.08984375 121.07421875 C480.73019531 121.70972656 480.37054687 122.34523438 480 123 C478.80586227 126.62238434 477.87184357 130.28805995 477 134 C475.84371094 133.98259766 475.84371094 133.98259766 474.6640625 133.96484375 C473.66117188 133.95582031 472.65828125 133.94679687 471.625 133.9375 C470.12839844 133.92009766 470.12839844 133.92009766 468.6015625 133.90234375 C467.31378906 133.95068359 467.31378906 133.95068359 466 134 C465.34 134.33 464.68 134.66 464 135 C464.08378906 135.58265625 464.16757812 136.1653125 464.25390625 136.765625 C464.84909488 141.55727017 465.10424128 146.23604173 464.875 151.0625 C464.58984375 154.08203125 464.58984375 154.08203125 464 157 C462.86468685 159.64906402 461.58605479 162.012649 460.05859375 164.453125 C459.70925781 164.96359375 459.35992188 165.4740625 459 166 C458.34 166 457.68 166 457 166 C457.01160156 165.10539063 457.02320313 164.21078125 457.03515625 163.2890625 C457.08385447 156.76350041 456.99155176 150.37357313 456.21875 143.890625 C456 142 456 142 456 140 C455.814375 141.2375 455.62875 142.475 455.4375 143.75 C455.33308594 144.44609375 455.22867187 145.1421875 455.12109375 145.859375 C455.08113281 146.56578125 455.04117187 147.2721875 455 148 C455.32318457 149.33582956 455.65718543 150.66907286 456 152 C456.06624507 153.74886981 456.08552595 155.50002748 456.0625 157.25 C456.05347656 158.14203125 456.04445313 159.0340625 456.03515625 159.953125 C456.01775391 160.96632812 456.01775391 160.96632812 456 162 C454.35 162 452.7 162 451 162 C451 162.66 451 163.32 451 164 C452.32 164.33 453.64 164.66 455 165 C454.67 165.99 454.34 166.98 454 168 C453.34 168.33 452.68 168.66 452 169 C453.051875 169.474375 454.10375 169.94875 455.1875 170.4375 C457.1171875 171.5703125 457.1171875 171.5703125 459 173 C460.5078125 174.7421875 460.5078125 174.7421875 461.8125 176.8125 C463 179.140625 463 179.140625 464 182 C464.95397244 186.98848086 465.55319662 191.93845123 466 197 C462.97733297 196.40348694 459.98274142 195.77330333 457 195 C457.7425 195.4125 458.485 195.825 459.25 196.25 C462 198 462 198 464.25 200.125 C465.11625 201.053125 465.11625 201.053125 466 202 C466.33 202.33 466.66 202.66 467 203 C466.69182184 199.60376001 466.37769353 196.20809553 466.0625 192.8125 C465.97548828 191.85279297 465.88847656 190.89308594 465.79882812 189.90429688 C465.71181641 188.97294922 465.62480469 188.04160156 465.53515625 187.08203125 C465.456604 186.22843018 465.37805176 185.3748291 465.29711914 184.49536133 C464.99518456 181.9595574 464.53368625 179.49640053 464 177 C467.125 176.6875 467.125 176.6875 471 177 C472.093125 177.721875 473.18625 178.44375 474.3125 179.1875 C475.199375 180.115625 476.08625 181.04375 477 182 C478.375 184.8125 478.375 184.8125 479 187 C479 184.69 479 182.38 479 180 C480.68816933 181.64488294 482.35353315 183.31337542 484 185 C484.33 185.66 484.66 186.32 485 187 C484.91621094 186.36191406 484.83242188 185.72382813 484.74609375 185.06640625 C484.64425781 184.24011719 484.54242187 183.41382813 484.4375 182.5625 C484.33308594 181.73878906 484.22867188 180.91507813 484.12109375 180.06640625 C484.08113281 179.38449219 484.04117188 178.70257813 484 178 C484.33 177.67 484.66 177.34 485 177 C486.43530239 176.86898863 487.87358964 176.76992531 489.3125 176.6875 C491.76004646 176.50131445 491.76004646 176.50131445 494 176 C495.35308313 174.68671343 496.68870078 173.35500919 498 172 C499.134375 171.814375 500.26875 171.62875 501.4375 171.4375 C502.613125 171.623125 503.78875 171.80875 505 172 C507.9375 174.5 507.9375 174.5 510 177 C509.375 179.0625 509.375 179.0625 508 182 C507.09280484 183.1291976 506.15181543 184.23167345 505.1875 185.3125 C502.49994167 188.34009004 500.25588475 191.43482334 498.14453125 194.88671875 C496.94328366 197.10472198 496.00490351 199.34894314 495.0625 201.6875 C494.11328125 203.9453125 494.11328125 203.9453125 493 206 C491.41796875 207.6796875 491.41796875 207.6796875 489.75 209.0625 C488.38875 210.0215625 488.38875 210.0215625 487 211 C485.68 209.68 484.36 208.36 483 207 C483.33 207.556875 483.66 208.11375 484 208.6875 C484.33 209.450625 484.66 210.21375 485 211 C485.03937847 212.6662014 485.04420777 214.33391973 485 216 C478.93054287 215.03569373 473.18447739 213.85466491 467.39453125 211.7890625 C463.5889968 210.53503646 459.6960362 209.6589926 455.796875 208.74609375 C453.08226008 208.02194368 450.5993028 207.05662716 448 206 C446.61172249 205.61728566 445.21586859 205.26051908 443.8125 204.9375 C442.554375 204.628125 441.29625 204.31875 440 204 C439.34 203.67 438.68 203.34 438 203 C437.236875 202.9175 436.47375 202.835 435.6875 202.75 C434.800625 202.5025 433.91375 202.255 433 202 C432.030625 201.319375 431.06125 200.63875 430.0625 199.9375 C429.381875 198.968125 428.70125 197.99875 428 197 C428.12375 195.7625 428.2475 194.525 428.375 193.25 C429.4462888 190.09029988 430.79094354 187.06167161 432.25 184.0625 C433.5703125 181.796875 433.5703125 181.796875 435 180 C436.546875 179.4121875 436.546875 179.4121875 438.125 178.8125 C439.07375 178.874375 440.0225 178.93625 441 179 C441.99 179.66 442.98 180.32 444 181 C444 179.68 444 178.36 444 177 C442.54182203 176.83197949 441.0834516 176.66562857 439.625 176.5 C438.81289063 176.4071875 438.00078125 176.314375 437.1640625 176.21875 C435.03087175 175.96647649 435.03087175 175.96647649 433 176 C433.66 176.33 434.32 176.66 435 177 C434.36971413 178.68076231 433.69040574 180.34302621 433 182 C432.72027344 182.68578125 432.44054687 183.3715625 432.15234375 184.078125 C431.22163825 186.17315439 430.26766757 188.0896954 429 190 C428.236875 190.45375 427.47375 190.9075 426.6875 191.375 C425.800625 191.25125 424.91375 191.1275 424 191 C421.95267409 189.69482973 420.17878496 188.24234414 418.35546875 186.640625 C417.90816406 186.09921875 417.46085937 185.5578125 417 185 C417 184.01 417 183.02 417 182 C418.32 181.34 419.64 180.68 421 180 C421 179.34 421 178.68 421 178 C420.39671875 178.02320313 419.7934375 178.04640625 419.171875 178.0703125 C418.37265625 178.08835938 417.5734375 178.10640625 416.75 178.125 C415.96109375 178.14820313 415.1721875 178.17140625 414.359375 178.1953125 C413.58078125 178.13085938 412.8021875 178.06640625 412 178 C411.39931261 177.67181463 410.79862522 177.34362926 410.17973518 177.00549889 C409.46042257 176.67368425 408.74110996 176.34186962 408 176 C405.50072483 175.68902192 405.50072483 175.68902192 402.76486206 175.71670532 C401.70521744 175.70502823 400.64557281 175.69335114 399.55381775 175.68132019 C397.81763939 175.67785332 397.81763939 175.67785332 396.04638672 175.67431641 C394.82316208 175.66450241 393.59993744 175.65468842 392.33964539 175.64457703 C388.28625832 175.61702649 384.23314913 175.60619696 380.1796875 175.6015625 C379.48870043 175.60047847 378.79771337 175.59939445 378.0857873 175.59827757 C371.56162631 175.58862231 365.03751187 175.58703837 358.51336479 175.60514259 C350.1875066 175.62776124 341.8638996 175.61049216 333.53831089 175.53795683 C327.67368676 175.49019166 321.81011402 175.48857882 315.94538891 175.52056444 C312.44756746 175.53842109 308.95246627 175.53650406 305.45492172 175.48491287 C298.18556451 175.38526435 290.91676254 175.33615268 283.70000648 176.30524063 C282.80900434 176.53451122 281.9180022 176.76378181 281 177 C278.85261166 178.10439224 278.85261166 178.10439224 277.12382507 179.62228394 C275.62711413 181.1525838 275.62711413 181.1525838 274.41235352 182.83007812 C272.48682671 185.94042915 272.48682671 185.94042915 271 189 C269.95880314 190.41610537 268.89404788 191.81594094 267.78515625 193.1796875 C266.8746966 194.40931077 265.96711841 195.64107305 265.0625 196.875 C260.44041386 203.10476828 255.71184634 209.23464533 250.90234375 215.3203125 C247.64185154 219.44629263 244.41395265 223.59737822 241.1875 227.75 C240.30408936 228.88671143 240.30408936 228.88671143 239.40283203 230.04638672 C238.20123508 231.59269608 236.99973823 233.13908324 235.79833984 234.68554688 C232.86700636 238.45815636 229.93337972 242.22898151 227 246 C226.42564209 246.73855225 225.85128418 247.47710449 225.25952148 248.23803711 C222.29389134 252.05146465 219.32737734 255.86419963 216.359375 259.67578125 C211.22405297 266.27201386 206.0912807 272.86968837 201 279.5 C195.30530446 286.91613129 189.55912408 294.29198584 183.81445312 301.66943359 C180.87486664 305.44517264 177.93749416 309.22263307 175 313 C171.45427972 317.55949384 167.90800104 322.1185484 164.359375 326.67578125 C159.22405297 333.27201386 154.0912807 339.86968837 149 346.5 C143.30530446 353.91613129 137.55912408 361.29198584 131.81445312 368.66943359 C128.87486664 372.44517264 125.93749416 376.22263307 123 380 C119.45427972 384.55949384 115.90800104 389.1185484 112.359375 393.67578125 C107.22405297 400.27201386 102.0912807 406.86968837 97 413.5 C89.45193854 423.3297467 81.82235321 433.0964775 74.203125 442.87109375 C73.58276367 443.66749268 72.96240234 444.4638916 72.32324219 445.28442383 C71.14743327 446.79386145 69.9710443 448.30284749 68.79394531 449.8112793 C68.25350586 450.50519775 67.71306641 451.19911621 67.15625 451.9140625 C66.45725586 452.8105249 66.45725586 452.8105249 65.74414062 453.72509766 C63.13464487 457.12869248 60.57328842 460.56894877 58 464 C180.76 464.495 180.76 464.495 306 465 C306 455.43 306 445.86 306 436 C307.2430681 413.73778041 309.83787472 391.29990247 315.13696289 369.59350586 C319.4803523 352.85931583 325.18902942 336.55024526 332.546875 320.8984375 C337.58351377 310.59175475 343.75832437 300.89480399 350.5 291.625 C355.31236862 285.41188837 360.58447676 279.68471592 366 274 C366.71671875 273.21882813 367.4334375 272.43765625 368.171875 271.6328125 C373.05118545 266.47835296 378.4053209 262.17574847 384.13964844 258.02416992 C393.22052696 251.61500044 402.90751048 246.19245516 412.98803711 241.50952148 C421.36531872 237.80768448 430.11152655 235.16807657 439 233 C452.24809394 230.0691063 465.43926267 228.1518916 479.015625 227.796875 C493.87642943 227.61095211 508.35079289 228.42135716 523 231 C533.59470412 232.9952891 543.91900333 235.78358456 554.125 239.25 C554.83881836 239.48879883 555.55263672 239.72759766 556.28808594 239.97363281 C565.5464505 243.27699122 574.04967097 247.76037046 583 252 C583 272.13 583 292.26 583 313 C579.85499123 311.42749562 577.37506552 309.91446572 574.5625 307.875 C564.20818447 300.59085943 553.56294141 294.32766458 542.03125 289.109375 C533.92298942 285.6046362 525.56855558 283.10400383 517 281 C516.28086426 280.82210938 515.56172852 280.64421875 514.82080078 280.4609375 C508.5002511 278.97824863 502.22897209 278.16275647 495.74511719 277.8359375 C485.23359994 277.48739313 474.5322535 277.20523862 464.10839844 278.82519531 C455.86146546 280.38066666 447.81813216 282.98405005 440 286 C435.60894991 287.85657751 431.55712225 290.02403991 427.51953125 292.5546875 C420.44510068 297.31484699 414.16735266 302.85008396 408.1328125 308.859375 C403.98556859 313.3315182 400.59274293 318.31519777 397.34008789 323.45947266 C393.01365469 330.47735512 389.09631321 337.61452578 386.1015625 345.30810547 C380.30866147 360.95698394 376.39033104 377.07907127 373.69189453 393.53271484 C373.05420437 397.67975264 372.50923196 401.83541439 372 406 C371.90090332 406.79647949 371.80180664 407.59295898 371.69970703 408.41357422 C369.45975406 427.18309587 369.37205695 446.12189088 369 465 C370.08269165 464.99214478 370.08269165 464.99214478 371.18725586 464.98413086 C374.43732849 464.96342642 377.68738728 464.95036082 380.9375 464.9375 C382.07380859 464.92912109 383.21011719 464.92074219 384.38085938 464.91210938 C385.46044922 464.90888672 386.54003906 464.90566406 387.65234375 464.90234375 C389.15269165 464.89448853 389.15269165 464.89448853 390.68334961 464.88647461 C391.44784424 464.92393799 392.21233887 464.96140137 393 465 C393.33 465.33 393.66 465.66 394 466 C394.09386381 467.8718094 394.11743804 469.7471806 394.11352539 471.62133789 C394.11344986 472.82250748 394.11337433 474.02367706 394.11329651 475.26124573 C394.10813522 476.5685112 394.10297394 477.87577667 394.09765625 479.22265625 C394.09579198 480.56644132 394.09436812 481.91022707 394.09336853 483.25401306 C394.08954402 486.79682277 394.07971432 490.3395917 394.06866455 493.88238525 C394.05844899 497.49515227 394.0538706 501.10792584 394.04882812 504.72070312 C394.03809198 511.81382039 394.02049572 518.90690325 394 526 C387.4 526 380.8 526 374 526 C377.35413517 541.67720322 380.819196 557.15899559 387 572 C390.74009506 580.51702966 395.08649953 588.72778034 400.23046875 596.484375 C403.9251108 601.73680211 407.76310502 606.69283607 412.23828125 611.30859375 C416.73264041 615.55285764 421.5317091 619.28086739 426.6875 622.6875 C431.37925451 625.65890201 436.13991263 628.13729703 441.25 630.3125 C448.92029213 633.28978445 456.87928298 635.17041576 464.95947266 636.65673828 C469.63432398 637.44315141 474.26558466 637.84598083 479 638 C479.90105469 638.03996094 480.80210937 638.07992187 481.73046875 638.12109375 C491.18289166 638.34273677 500.66928601 637.48670328 510 636 C519.48462999 634.19503524 528.74150698 631.66031191 537.75 628.1875 C548.02182601 623.82671393 558.09288567 619.06842082 567.4375 612.9375 C571.87768525 609.87425745 576.15835219 606.63794273 580.35546875 603.25 C580.89816406 602.8375 581.44085937 602.425 582 602 C582.33 602 582.66 602 583 602 C583 622.13 583 642.26 583 663 C565.58081019 672.29023457 565.58081019 672.29023457 558.6875 674.6875 C557.50148193 675.11047363 557.50148193 675.11047363 556.29150391 675.54199219 C543.15518492 680.13722627 529.83679057 683.68183912 516.05859375 685.71801758 C515.03958984 685.85759888 515.03958984 685.85759888 514 686 C513.31035156 686.09498779 512.62070312 686.18997559 511.91015625 686.2878418 C496.84918907 688.07230895 481.13445878 687.67575354 466 687 C454.4161703 686.12716794 443.11120237 683.9899743 431.91357422 680.92895508 C420.77230495 677.67486441 410.25733135 673.23563325 399.9453125 667.94140625 C392.66828527 664.08886242 385.79319577 659.79067389 379.36328125 654.63842773 C370.08358332 646.90315917 361.3275685 638.34471392 353.640625 629.01953125 C346.01039133 619.36376458 339.79082871 608.83646313 334 598 C333.45134277 596.9788208 333.45134277 596.9788208 332.89160156 595.93701172 C326.42244414 583.66990992 322.07479532 570.56497597 317.98681641 557.34423828 C315.04197084 547.36440292 312.71010719 537.26064316 311 527 C143.195 526.505 143.195 526.505 -28 526 C-28 507.19 -28 488.38 -28 469 C-24.7 465.04 -21.4 461.08 -18 457 C-14.35915612 452.31038636 -14.35915612 452.31038636 -10.75 447.59765625 C-7.6109407 443.48110312 -4.43085787 439.39679161 -1.25 435.3125 C-0.65735352 434.55114746 -0.06470703 433.78979492 0.54589844 433.00537109 C1.75900417 431.44701691 2.97222107 429.88874925 4.18554688 428.33056641 C7.12513339 424.55482732 10.06244872 420.77732256 13 417 C13.57500244 416.26080322 14.15000488 415.52160645 14.74243164 414.76000977 C17.69786359 410.96064102 20.65242048 407.16059682 23.60546875 403.359375 C29.32597439 395.99733296 35.05702149 388.64427074 40.82373047 381.31835938 C46.31262052 374.34011194 51.75491673 367.3256084 57.20166016 360.31445312 C60.13299363 356.54184366 63.06659198 352.77099645 66 349 C67.16667794 347.50000877 68.3333446 346.00000876 69.5 344.5 C71.83333333 341.5 74.16666667 338.5 76.5 335.5 C77.0777417 334.75717773 77.6554834 334.01435547 78.25073242 333.24902344 C79.41491259 331.75224357 80.5791377 330.25549866 81.7434082 328.75878906 C84.69849173 324.95980942 87.65274014 321.16018535 90.60546875 317.359375 C96.32597439 309.99733296 102.05702149 302.64427074 107.82373047 295.31835938 C113.31262052 288.34011194 118.75491673 281.3256084 124.20166016 274.31445312 C127.13299363 270.54184366 130.06659198 266.77099645 133 263 C134.16667794 261.50000877 135.3333446 260.00000876 136.5 258.5 C138.83333333 255.5 141.16666667 252.5 143.5 249.5 C144.0777417 248.75717773 144.6554834 248.01435547 145.25073242 247.24902344 C146.41491259 245.75224357 147.5791377 244.25549866 148.7434082 242.75878906 C151.69849173 238.95980942 154.65274014 235.16018535 157.60546875 231.359375 C162.88822065 224.56070299 168.17499854 217.76565283 173.5 211 C175.33408939 208.66726007 177.16719815 206.33375163 179 204 C179.85174805 202.9162207 179.85174805 202.9162207 180.72070312 201.81054688 C182.56661961 199.45922438 184.40864882 197.10489875 186.25 194.75 C186.81654297 194.02941406 187.38308594 193.30882812 187.96679688 192.56640625 C190.99196105 188.69052496 193.89957224 184.75861356 196.70996094 180.72363281 C197.63902252 179.39129608 197.63902252 179.39129608 198.58685303 178.03204346 C199.05319153 177.36146912 199.51953003 176.69089478 200 176 C192.1829007 176.08563558 184.36597852 176.1809488 176.54913998 176.28752708 C172.91666652 176.336773 169.28421269 176.38308649 165.65161133 176.421875 C138.03450382 176.51335814 138.03450382 176.51335814 110.64082336 179.59158325 C106.764985 180.2376606 102.9269972 180.83162059 99 181 C93.06052373 180.78182684 87.20380354 179.74424339 81.34765625 178.7890625 C79.71027578 178.53775517 78.07260873 178.2883087 76.43467712 178.0406189 C72.17557387 177.39154856 67.92077471 176.71769527 63.66644287 176.03814697 C59.304086 175.34600639 54.93803796 174.67800696 50.57226562 174.0078125 C42.0444386 172.69513461 33.52101601 171.35618462 25 170 C25.66 169.34 26.32 168.68 27 168 C29.71006775 167.37985229 29.71006775 167.37985229 33.20288086 166.85498047 C34.15704895 166.70823883 34.15704895 166.70823883 35.13049316 166.55853271 C37.24077036 166.23636486 39.35263791 165.9264389 41.46484375 165.6171875 C42.93786424 165.39633866 44.41080945 165.17498719 45.88368225 164.95315552 C48.9790516 164.4889175 52.07523756 164.03069735 55.17211914 163.57666016 C59.11415611 162.99824969 63.0538509 162.40539389 66.99303341 161.80788994 C70.04049358 161.34729771 73.08907502 160.89450418 76.13803291 160.44394302 C77.58903359 160.22861004 79.03969266 160.01096047 80.48997307 159.7908287 C87.82715272 158.68154354 95.10240829 157.65022225 102.54125977 157.79309082 C105.72536383 158.06104119 108.7029709 158.77321946 111.7961731 159.54864502 C113.99039821 160.04860316 113.99039821 160.04860316 116.22653198 160.15496826 C118.69377313 160.17458756 121.15436677 160.14056715 123.62109375 160.0859375 C131.83159555 159.98558564 140.02178641 160.04347505 148.22929955 160.24746323 C154.91262798 160.40977783 161.59486404 160.49461891 168.27996254 160.54144669 C172.62570661 160.57521089 176.96565848 160.64341828 181.30932617 160.78515625 C195.83062601 161.27690373 195.83062601 161.27690373 210.27456665 159.98144531 C212.11865616 159.49562988 212.11865616 159.49562988 214 159 C214.95151947 158.43990234 215.90303894 157.87980469 216.88339233 157.30273438 C219.26486905 155.26548157 219.26486905 155.26548157 221.22573853 152.91384888 C223.41070917 149.77412558 225.25646697 146.57977587 226.92678833 143.14007568 C228 141 228 141 230.14233398 138.05908203 C231.08314819 136.93928955 231.08314819 136.93928955 232.04296875 135.796875 C232.57277344 135.11496094 233.10257812 134.43304688 233.6484375 133.73046875 C238.68837412 127.24506807 243.74347445 120.77221468 248.82373047 114.31835938 C253.69931422 108.11983299 258.53720801 101.89210052 263.375 95.6640625 C265.80879371 92.5309482 268.24651373 89.40095116 270.6875 86.2734375 C271.29489014 85.49452148 271.90228027 84.71560547 272.52807617 83.91308594 C273.66540694 82.45473815 274.80350879 80.99699115 275.94262695 79.54003906 C280.71328594 73.41864696 285.34050114 67.21266515 290 61 C194.3 61 98.6 61 0 61 C0 40.87 0 20.74 0 0 Z M460 119 C457.71515694 120.39957197 457.71515694 120.39957197 456 122 C457.258125 121.773125 458.51625 121.54625 459.8125 121.3125 C462.046875 121.03125 462.046875 121.03125 464 121 C465.5625 122.3125 465.5625 122.3125 467 124 C469.30988315 124.74386068 471.64315944 125.42190703 474 126 C473.67 125.01 473.34 124.02 473 123 C471.10462319 121.67589331 469.15816535 120.76986248 467.0625 119.796875 C466.381875 119.53390625 465.70125 119.2709375 465 119 C463.63875 118.7834375 463.63875 118.7834375 462.25 118.5625 C461.5075 118.706875 460.765 118.85125 460 119 Z M443 142 C444 145 444 145 444 145 Z M415 144 C416 147 416 147 416 147 Z M444 145 C442.16905627 153.46989724 442.16905627 153.46989724 440.95703125 162.04296875 C440.97121094 162.68878906 440.98539063 163.33460938 441 164 C442.31865712 166.64225405 442.31865712 166.64225405 444 169 C444.6875 172.8125 444.6875 172.8125 445 176 C445.33 176 445.66 176 446 176 C446.05422947 174.5629191 446.09289723 173.12524538 446.125 171.6875 C446.14820313 170.88699219 446.17140625 170.08648437 446.1953125 169.26171875 C446.13085938 168.51535156 446.06640625 167.76898438 446 167 C445.34 166.01 444.68 165.02 444 164 C444.0234375 161.8359375 444.0234375 161.8359375 444.375 159.375 C444.98024999 154.53300012 445.07866543 149.87725668 445 145 C444.67 145 444.34 145 444 145 Z M416 154 C416.34444881 156.47266765 416.34444881 156.47266765 417 159 C417.66 159.33 418.32 159.66 419 160 C418.34 158.02 417.68 156.04 417 154 C416.67 154 416.34 154 416 154 Z M419 160 C420 162 420 162 420 162 Z M422 168 C423 170 423 170 423 170 Z M446 186 C446.66 187.65 447.32 189.3 448 191 C448.99 191 449.98 191 451 191 C451.66 190.67 452.32 190.34 453 190 C452.67 189.34 452.34 188.68 452 188 C450.02111039 187.27306096 448.02045442 186.60183749 446 186 Z " fill="#000000" transform="translate(108,42)"/>
  <path d="M0 0 C2.3203125 -0.078125 2.3203125 -0.078125 4.8125 0.1875 C6.21318736 0.43199192 7.61135566 0.69443774 9 1 C9.14695312 1.53367188 9.29390625 2.06734375 9.4453125 2.6171875 C10.20280454 5.13345416 11.0178767 7.56100007 12 10 C12.98712587 11.66626846 14.0090955 13.31232093 15.0625 14.9375 C16.66015625 17.453125 16.66015625 17.453125 18 20 C18.62109375 22.609375 18.62109375 22.609375 19 25.1875 C19.32429591 27.67559334 19.32429591 27.67559334 20 30 C21.39602509 31.96712626 22.93296227 33.61768266 24.6015625 35.35546875 C25.06304688 35.89816406 25.52453125 36.44085938 26 37 C26.680625 38.7325 26.680625 38.7325 27.375 40.5 C28 44 28 44 28.3125 47.625 C28.209375 48.73875 28.10625 49.8525 28 51 C27.38125 52.3921875 27.38125 52.3921875 26.75 53.8125 C26.1725 54.534375 25.595 55.25625 25 56 C24.34 56.433125 23.68 56.86625 23 57.3125 C22.34 57.539375 21.68 57.76625 21 58 C20.01 58 19.02 58 18 58 C17.67 57.34 17.34 56.68 17 56 C16.01 56.66 15.02 57.32 14 58 C12 58.66666667 10 59.33333333 8 60 C7.01 60.66 6.02 61.32 5 62 C3.08273595 62.62802156 1.14109686 63.18374232 -0.8125 63.6875 C-2.33810547 64.09548828 -2.33810547 64.09548828 -3.89453125 64.51171875 C-5.43173828 64.75341797 -5.43173828 64.75341797 -7 65 C-10.1328125 64.6171875 -10.1328125 64.6171875 -13 64 C-17.3379319 63.36460672 -21.60670164 62.86270943 -26 63 C-25.979375 62.401875 -25.95875 61.80375 -25.9375 61.1875 C-25.628125 60.465625 -25.31875 59.74375 -25 59 C-22 57.1875 -22 57.1875 -20.078125 56.4609375 C-19.39234375 56.30882812 -18.7065625 56.15671875 -18 56 C-15.77387132 56.04184452 -13.67949368 56.32354316 -11.48046875 56.66796875 C-7.02270017 57.26467793 -2.48719833 57.26079443 2 57 C2.99 56.505 2.99 56.505 4 56 C5.12224855 54.11986894 5.12224855 54.11986894 6.125 51.9375 C6.47820313 51.20402344 6.83140625 50.47054687 7.1953125 49.71484375 C7.46085938 49.14894531 7.72640625 48.58304688 8 48 C7.34 48 6.68 48 6 48 C4.59266961 48.64204075 3.19843643 49.31299537 1.8125 50 C-0.6015625 51.109375 -0.6015625 51.109375 -3 52 C-5.1484375 52.265625 -5.1484375 52.265625 -7.0625 52.25 C-8.031875 52.1675 -9.00125 52.085 -10 52 C-9.34 51.34 -8.68 50.68 -8 50 C-6.36737467 49.51553314 -4.718708 49.08391983 -3.0625 48.6875 C-0.38484355 47.98791921 -0.38484355 47.98791921 2 47 C2.70125 46.113125 3.4025 45.22625 4.125 44.3125 C4.41375 43.549375 4.7025 42.78625 5 42 C4.67 42.33 4.34 42.66 4 43 C1.35668823 44.82998507 -1.17907749 46.47288406 -4 48 C-9.25223215 50.2270949 -14.58855458 52.19618486 -20 54 C-19.67 53.01 -19.34 52.02 -19 51 C-17.04402816 49.60287726 -15.04563599 48.26220093 -13 47 C-13.66 46.34 -14.32 45.68 -15 45 C-13.36021682 43.95650161 -11.68535024 42.96817992 -10 42 C-8.75346739 41.51188407 -7.50335169 41.03282991 -6.25 40.5625 C-5.1775 40.046875 -4.105 39.53125 -3 39 C-2.25174381 36.96240399 -2.25174381 36.96240399 -2 35 C-2.47050781 34.62488281 -2.94101562 34.24976563 -3.42578125 33.86328125 C-5.34033569 32.28962056 -7.20194929 30.70615034 -9 29 C-10.9375 26.125 -10.9375 26.125 -12 24 C-11.67 23.67 -11.34 23.34 -11 23 C-10.0925 22.87625 -9.185 22.7525 -8.25 22.625 C-6.64125 22.810625 -6.64125 22.810625 -5 23 C-2.5 25.1875 -2.5 25.1875 0 28 C1.95894543 29.7216385 3.97681295 31.35321984 6 33 C5.01 31.68 4.02 30.36 3 29 C6.3125 28.375 6.3125 28.375 10 28 C10.99 28.66 11.98 29.32 13 30 C10.87146994 28.36997157 10.87146994 28.36997157 8 27 C6.39125 27.12375 6.39125 27.12375 4.75 27.25 C3.5125 27.1675 2.275 27.085 1 27 C-1.4140625 25.69921875 -1.4140625 25.69921875 -3.875 23.9375 C-6.16015625 21.9921875 -6.16015625 21.9921875 -8 20 C-8.433125 18.865625 -8.86625 17.73125 -9.3125 16.5625 C-9.209375 15.386875 -9.10625 14.21125 -9 13 C-8.31640625 10.95703125 -8.31640625 10.95703125 -7.375 8.875 C-5.97494154 6.44032206 -4.4494988 4.22929832 -2.8125 1.9375 C-1.884375 1.298125 -0.95625 0.65875 0 0 Z M14 32 C14.66 33.32 15.32 34.64 16 36 C16 35.01 16 34.02 16 33 C15.34 32.67 14.68 32.34 14 32 Z M22 40 C23 42 23 42 23 42 Z M23 42 C24 44 24 44 24 44 Z M24 44 C23.67 46.31 23.34 48.62 23 51 C23.66 50.67 24.32 50.34 25 50 C25 48.02 25 46.04 25 44 C24.67 44 24.34 44 24 44 Z " fill="#000000" transform="translate(596,155)"/>
  <path d="M0 0 C1.65 0.33 3.3 0.66 5 1 C3.68 1.33 2.36 1.66 1 2 C1 4.31 1 6.62 1 9 C1.66 9 2.32 9 3 9 C3.33 7.35 3.66 5.7 4 4 C5.32 4.66 6.64 5.32 8 6 C8 6.99 8 7.98 8 9 C7.01 9.33 6.02 9.66 5 10 C5.66 10.33 6.32 10.66 7 11 C8.99021521 10.90276549 8.99021521 10.90276549 11.125 10.5625 C12.40375 10.376875 13.6825 10.19125 15 10 C15.625 11.875 15.625 11.875 16 14 C15.34 14.66 14.68 15.32 14 16 C10.83449065 16.64602232 7.7690768 16.98168865 4.5390625 17.05859375 C2.35827992 17.06203347 0.18028516 17.04449562 -2 17 C-2.68823215 14.45798126 -3.05313061 12.28273676 -3.25 9.625 C-3.1675 8.42875 -3.085 7.2325 -3 6 C-1.5 2.5625 -1.5 2.5625 0 0 Z " fill="#000000" transform="translate(578,179)"/>
  <path d="M0 0 C3.1875 -0.125 3.1875 -0.125 6 0 C4.85481604 1.14518396 3.70865422 2.28940091 2.55859375 3.4296875 C1.4519132 4.54468896 0.3623844 5.67683114 -0.71484375 6.8203125 C-2.43089102 8.61521533 -4.13909868 10.3552854 -6 12 C-8.9375 13.4375 -8.9375 13.4375 -11 14 C-10.7109375 12.2578125 -10.7109375 12.2578125 -10 10 C-8.4765625 7.9296875 -8.4765625 7.9296875 -6.625 5.875 C-6.01914062 5.19179687 -5.41328125 4.50859375 -4.7890625 3.8046875 C-4.19867187 3.20914063 -3.60828125 2.61359375 -3 2 C-2.01 1.34 -1.02 0.68 0 0 Z " fill="#000000" transform="translate(578,197)"/>
</svg>
